# xmcd
#
# Track frame offsets: 
#        150
#        17256
#        29700
#        46999
#        63785
#
# Disc length: 1046 seconds
#
# Revision: 0
# Processed by: cddbd v1.5.2PL0 Copyright (c) Steve Scherf et al.
# Submitted via: ExactAudioCopy v1.0b4
#
DISCID=34041405
DTITLE=The True Sparrows - Introduction
DYEAR=2014
DGENRE=Blues
TTITLE0=Special Rider Blues
TTITLE1=My Walking Stick
TTITLE2=It's Me Not You Blues
TTITLE3=One Meatball
TTITLE4=Nobody's Fault (but mine)
EXTD=
EXTT0=
EXTT1=
EXTT2=
EXTT3=
EXTT4=
PLAYORDER=
